<svg width="400" height="150" viewBox="0 0 400 150" fill="none" xmlns="http://www.w3.org/2000/svg">
<path d="M25.9321 63.0284C25.7592 64.7721 25.2405 66.3322 24.549 67.7088C23.771 69.0854 22.9066 70.3702 21.6964 71.3797C20.5727 72.3892 19.2761 73.2151 17.8066 73.7658C16.3371 74.3164 14.7812 74.5917 13.0523 74.5917C11.1506 74.5917 9.4218 74.2246 7.86586 73.5822C6.30993 72.9398 4.92687 71.9303 3.80313 70.5537C2.6794 69.1772 1.81499 67.5252 1.12346 65.5063C0.518372 63.4873 0.172607 61.193 0.172607 58.5316C0.172607 55.8702 0.518372 53.5758 1.12346 51.6486C1.72855 49.7214 2.59296 48.1613 3.80313 46.8765C4.92687 45.6834 6.30993 44.7657 7.95231 44.1233C9.59469 43.4809 11.3235 43.2056 13.3117 43.2056C15.1269 43.2056 16.7693 43.4809 18.3252 44.0315C19.7947 44.5822 21.1778 45.3163 22.3015 46.3258C23.4253 47.3353 24.2897 48.5284 24.9812 49.9967C25.5863 51.3733 26.0185 53.0252 26.1049 54.6771H18.671C18.4981 53.117 17.893 51.9239 16.9422 51.098C15.9913 50.272 14.7812 49.8132 13.3981 49.8132C12.6201 49.8132 11.8422 49.9967 11.1506 50.272C10.4591 50.5474 9.85401 51.0062 9.33536 51.7404C8.64384 52.291 8.29807 53.2088 7.95231 54.31C7.60654 55.4113 7.5201 56.7879 7.5201 58.4398C7.5201 61.7436 8.03875 64.1297 9.16248 65.6898C10.2862 67.2499 11.4964 68.0759 12.9659 68.0759C14.4354 68.0759 15.6456 67.617 16.6829 66.7911C17.7202 65.9651 18.3252 64.6803 18.4117 63.1202H25.9321V63.0284Z" fill="black"/>
<path d="M43.4797 74.5917C41.2323 74.5917 39.1577 74.2246 37.3424 73.3987C35.5271 72.6645 34.0576 71.5632 32.8475 70.1866C31.6373 68.8101 30.6864 67.1582 29.9949 65.2309C29.3898 63.3037 29.0441 61.193 29.0441 58.8986C29.0441 56.5126 29.3898 54.4018 30.0814 52.4746C30.7729 50.5474 31.7237 48.8955 32.9339 47.5189C34.2305 46.1423 35.7 45.1328 37.4289 44.3068C39.1577 43.5727 41.2323 43.2056 43.4797 43.2056C45.7272 43.2056 47.6289 43.5727 49.4442 44.3068C51.173 45.041 52.6425 46.1423 53.9391 47.4271C55.1493 48.8037 56.1001 50.4556 56.7917 52.3828C57.4832 54.31 57.829 56.5126 57.829 58.8986C57.829 61.2847 57.4832 63.3955 56.7917 65.3227C56.1001 67.2499 55.1493 68.9018 53.9391 70.2784C52.7289 71.655 51.173 72.7563 49.4442 73.4905C47.6289 74.2246 45.6408 74.5917 43.4797 74.5917ZM43.4797 67.9841C47.9747 67.9841 50.3086 64.9556 50.3086 58.8986C50.3086 52.8417 48.0611 49.905 43.4797 49.905C38.9848 49.905 36.6509 52.9334 36.6509 58.8986C36.7373 64.9556 38.9848 67.9841 43.4797 67.9841Z" fill="black"/>
<path d="M81.6 69.8201C81.0814 71.1967 80.1305 72.2062 78.7475 72.9404C77.3644 73.6745 75.722 74.0416 73.9068 74.0416C71.5729 74.0416 69.6712 73.5828 68.0288 72.7568C66.4728 71.9309 65.1762 70.7378 64.2254 69.3612C63.2745 67.9846 62.583 66.3327 62.1508 64.4973C61.7186 62.6619 61.4592 60.7346 61.4592 58.8074C61.4592 56.5131 61.805 54.4023 62.4101 52.4751C63.0152 50.5479 63.966 48.896 65.0033 47.6112C66.1271 46.2346 67.4237 45.2251 68.8932 44.4909C70.3627 43.7567 72.0051 43.3896 73.6474 43.3896C77.1051 43.3896 79.7848 44.858 81.5136 47.8865V44.2156H88.9475V74.3169C88.9475 76.6113 88.6017 78.5385 87.8238 80.2821C87.1323 82.0258 86.095 83.4024 84.8848 84.5954C83.5882 85.7885 82.1187 86.6144 80.4763 87.2568C78.7475 87.8993 76.9322 88.1746 75.0305 88.1746C73.1288 88.1746 71.3135 87.8993 69.5847 87.2568C67.9423 86.7062 66.4728 85.8803 65.2627 84.779C64.0525 83.6777 63.1016 82.3929 62.4101 80.8328C61.7186 79.2726 61.3728 77.529 61.3728 75.6018H68.2881C68.2881 77.4372 68.8067 78.8138 69.9305 79.8233C71.0542 80.8328 72.5237 81.2916 74.4254 81.2916C76.4136 81.2916 78.0559 80.741 79.439 79.548C80.8221 78.3549 81.5136 76.7948 81.5136 74.8676V69.8201H81.6ZM75.4627 67.8929C77.278 67.8929 78.8339 67.1587 79.9576 65.6903C81.1678 64.222 81.7729 62.203 81.7729 59.6334C81.7729 53.3011 79.6983 50.089 75.4627 50.089C71.2271 50.089 69.1525 53.1175 69.1525 59.1745C69.1525 61.8359 69.7576 63.9467 70.9678 65.5068C72.1779 67.1587 73.6474 67.8929 75.4627 67.8929Z" fill="black"/>
<path d="M111.768 73.8575V55.7784C111.768 53.4841 111.422 51.9239 110.644 51.098C109.953 50.272 108.656 49.905 106.927 49.905C103.124 49.905 101.136 52.1993 101.136 56.7879V73.8575H93.7016V44.0315H100.79V48.3448C101.654 46.6929 102.864 45.4081 104.247 44.4904C105.717 43.6644 107.532 43.2056 109.866 43.2056C111.163 43.2056 112.459 43.3891 113.583 43.848C114.707 44.3068 115.744 44.9492 116.522 45.7752C117.3 46.6011 117.992 47.7024 118.424 48.8955C118.856 50.0885 119.115 51.5569 119.115 53.2088V73.8575H111.768Z" fill="black"/>
<path d="M124.302 40.4526V33.1108H131.736V40.4526H124.302ZM124.302 73.8578V44.0318H131.736V73.8578H124.302Z" fill="black"/>
<path d="M152.568 54.2185H159.483V62.6616C159.483 64.2217 159.224 65.7818 158.792 67.1584C158.359 68.6268 157.668 69.8198 156.717 71.0128C155.766 72.1141 154.642 73.0318 153.173 73.6742C151.79 74.3166 150.061 74.6837 148.073 74.6837C145.998 74.6837 144.27 74.3166 142.8 73.6742C141.331 73.0318 140.207 72.2059 139.256 71.1046C138.305 70.0033 137.614 68.7185 137.268 67.2502C136.836 65.7818 136.663 64.2217 136.663 62.6616V33.1108H143.924V44.0318H159.397V49.6299H143.924V61.8356C143.924 63.7628 144.27 65.2312 144.961 66.2407C145.653 67.2502 146.69 67.8008 148.246 67.8008C149.715 67.8008 150.839 67.3419 151.531 66.3324C152.222 65.323 152.568 63.8546 152.568 62.0191V54.2185Z" fill="black"/>
<path d="M164.237 40.4526V33.1108H171.671V40.4526H164.237ZM164.237 73.8578V44.0318H171.671V73.8578H164.237Z" fill="black"/>
<path d="M185.329 73.8578L175.302 44.0317H183.601L189.478 63.671L195.443 44.0317H203.223L193.109 73.8578H185.329Z" fill="black"/>
<path d="M211.608 61.0094C211.694 63.3037 212.299 65.0474 213.423 66.424C214.547 67.8006 216.016 68.443 217.831 68.443C219.042 68.443 220.079 68.1677 221.03 67.5252C221.981 66.9746 222.586 66.1487 222.845 65.0474H230.452C229.587 68.0759 228.031 70.462 225.87 72.1139C223.709 73.7658 221.116 74.5917 218.091 74.5917C208.755 74.5917 204.087 69.1771 204.087 58.348C204.087 56.0537 204.433 53.9429 205.038 52.1075C205.643 50.272 206.508 48.6201 207.718 47.3353C208.842 45.9587 210.311 44.9492 211.953 44.3068C213.596 43.5727 215.584 43.2056 217.745 43.2056C222.067 43.2056 225.352 44.6739 227.599 47.6106C229.847 50.5474 230.97 54.9524 230.97 60.9176H211.608V61.0094ZM223.364 56.0537C223.364 54.9524 223.104 54.0347 222.845 53.2088C222.499 52.3828 222.067 51.7404 221.548 51.1898C221.03 50.6391 220.425 50.272 219.733 49.9967C219.042 49.7214 218.35 49.6296 217.659 49.6296C216.189 49.6296 214.892 50.1803 213.769 51.3733C212.645 52.5663 212.04 54.1265 211.953 56.1455H223.364V56.0537Z" fill="black"/>
<path d="M18.2391 148.285C17.9797 147.551 17.8933 146.633 17.8069 145.624C16.9425 146.633 15.7323 147.551 14.3492 148.102C12.8797 148.744 11.2373 149.019 9.33564 149.019C6.13732 149.019 3.71697 148.285 2.24747 146.725C0.77797 145.257 0 143.238 0 140.852C0 138.741 0.345764 136.997 0.950852 135.712C1.55594 134.428 2.50679 133.418 3.63053 132.684C4.75426 131.95 6.13732 131.399 7.69326 131.124C9.2492 130.757 10.978 130.481 12.8797 130.206C14.7814 129.931 15.9916 129.564 16.6831 129.105C17.2882 128.646 17.634 127.912 17.634 126.811C17.634 125.801 17.2018 125.067 16.3374 124.516C15.473 123.966 14.3492 123.69 12.8797 123.69C11.1509 123.69 9.94073 124.057 9.16276 124.883C8.38479 125.709 7.95258 126.719 7.7797 128.095H0.864411C0.864411 126.535 1.12373 125.159 1.55594 123.874C1.98815 122.589 2.67967 121.488 3.63053 120.57C4.58138 119.652 5.87799 118.918 7.43393 118.459C8.98987 118 10.8916 117.725 13.139 117.725C15.3865 117.725 17.2018 118 18.7577 118.551C20.3137 119.102 21.5238 119.836 22.4747 120.845C23.4255 121.855 24.1171 123.048 24.4628 124.516C24.895 125.985 25.0679 127.637 25.0679 129.472V148.285H18.2391ZM17.7204 133.693C17.3747 134.061 16.7696 134.428 16.078 134.703C15.3865 134.978 14.3492 135.254 12.9662 135.529C10.8051 135.988 9.33564 136.538 8.55767 137.181C7.7797 137.823 7.34749 138.833 7.34749 140.118C7.34749 142.32 8.55767 143.421 10.978 143.421C11.9289 143.421 12.7933 143.238 13.6577 142.871C14.4357 142.504 15.2136 142.045 15.7323 141.494C16.3374 140.944 16.7696 140.209 17.1153 139.475C17.4611 138.649 17.634 137.823 17.634 136.997L17.7204 133.693Z" fill="black"/>
<path d="M55.2358 137.548C55.0629 139.292 54.5442 140.852 53.8527 142.228C53.0747 143.605 52.2103 144.89 51.0001 145.899C49.8764 146.909 48.5798 147.735 47.1103 148.285C45.6408 148.836 44.0849 149.111 42.356 149.111C40.4543 149.111 38.7255 148.744 37.1696 148.102C35.6136 147.459 34.2306 146.45 33.1068 145.073C31.9831 143.697 31.1187 142.045 30.4272 140.026C29.8221 138.007 29.4763 135.712 29.4763 133.051C29.4763 130.39 29.8221 128.095 30.4272 126.168C31.0323 124.241 31.8967 122.681 33.1068 121.396C34.2306 120.203 35.6136 119.285 37.256 118.643C38.8984 118 40.6272 117.725 42.6154 117.725C44.4306 117.725 46.073 118 47.6289 118.551C49.0984 119.102 50.4815 119.836 51.6052 120.845C52.729 121.855 53.5934 123.048 54.2849 124.516C54.89 125.893 55.3222 127.545 55.4086 129.197H47.9747C47.8018 127.637 47.1967 126.443 46.2459 125.618C45.295 124.792 44.0849 124.333 42.7018 124.333C41.9238 124.333 41.1459 124.516 40.4543 124.792C39.7628 125.067 39.1577 125.526 38.6391 126.26C38.1204 126.902 37.6882 127.82 37.4289 128.921C37.0831 130.023 36.9967 131.399 36.9967 133.051C36.9967 136.355 37.5153 138.741 38.6391 140.301C39.7628 141.861 40.973 142.687 42.4425 142.687C43.912 142.687 45.1222 142.228 46.1594 141.402C47.1967 140.576 47.8018 139.292 47.8883 137.731H55.2358V137.548Z" fill="black"/>
<path d="M76.9324 148.285V129.838C76.9324 127.544 76.5866 126.076 75.8086 125.25C75.0307 124.424 73.8205 123.965 72.0917 123.965C71.1408 123.965 70.3629 124.148 69.6713 124.516C68.9798 124.883 68.3747 125.433 67.8561 126.076C67.3374 126.718 66.9917 127.544 66.7323 128.37C66.473 129.196 66.3866 130.205 66.3866 131.215V148.285H58.9526V107.629H66.3866V122.405C66.6459 121.762 67.0781 121.12 67.5967 120.569C68.1154 120.019 68.8069 119.468 69.4984 119.101C70.19 118.734 71.0544 118.367 71.9188 118.091C72.7832 117.816 73.7341 117.724 74.6849 117.724C77.5375 117.724 79.9578 118.55 81.6866 120.202C83.5019 121.854 84.3663 124.24 84.3663 127.177V148.285H76.9324Z" fill="black"/>
<path d="M89.4668 114.971V107.629H96.9007V114.971H89.4668ZM89.4668 148.285V118.459H96.9007V148.285H89.4668Z" fill="black"/>
<path d="M108.57 135.437C108.657 137.731 109.262 139.475 110.386 140.852C111.509 142.228 112.979 142.871 114.794 142.871C116.004 142.871 117.042 142.595 117.993 141.953C118.943 141.402 119.548 140.576 119.808 139.475H127.415C126.55 142.504 124.994 144.89 122.833 146.542C120.672 148.193 118.079 149.019 115.054 149.019C105.718 149.019 101.05 143.605 101.05 132.776C101.05 130.481 101.396 128.371 102.001 126.535C102.606 124.7 103.47 123.048 104.681 121.763C105.804 120.386 107.274 119.377 108.916 118.735C110.559 118 112.547 117.633 114.708 117.633C119.03 117.633 122.315 119.102 124.562 122.038C126.809 124.975 127.933 129.38 127.933 135.345H108.57V135.437ZM120.326 130.481C120.326 129.38 120.067 128.462 119.808 127.636C119.462 126.811 119.03 126.168 118.511 125.617C117.993 125.067 117.387 124.7 116.696 124.424C116.004 124.149 115.313 124.057 114.621 124.057C113.152 124.057 111.855 124.608 110.731 125.801C109.608 126.994 109.003 128.554 108.916 130.573H120.326V130.481Z" fill="black"/>
<path d="M138.911 148.285L128.884 118.459H137.182L143.06 138.098L149.024 118.459H156.804L146.69 148.285H138.911Z" fill="black"/>
<path d="M165.189 135.437C165.276 137.731 165.881 139.475 167.004 140.852C168.128 142.228 169.598 142.871 171.413 142.871C172.623 142.871 173.66 142.595 174.611 141.953C175.562 141.402 176.167 140.576 176.426 139.475H184.033C183.169 142.504 181.613 144.89 179.452 146.542C177.291 148.193 174.698 149.019 171.672 149.019C162.337 149.019 157.669 143.605 157.669 132.776C157.669 130.481 158.015 128.371 158.62 126.535C159.225 124.7 160.089 123.048 161.299 121.763C162.423 120.386 163.893 119.377 165.535 118.735C167.177 118 169.165 117.633 171.326 117.633C175.649 117.633 178.933 119.102 181.181 122.038C183.428 124.975 184.552 129.38 184.552 135.345H165.189V135.437ZM176.859 130.481C176.859 129.38 176.599 128.462 176.34 127.636C175.994 126.811 175.562 126.168 175.043 125.617C174.525 125.067 173.92 124.7 173.228 124.424C172.537 124.149 171.845 124.057 171.154 124.057C169.684 124.057 168.387 124.608 167.264 125.801C166.14 126.994 165.535 128.554 165.448 130.573H176.859V130.481Z" fill="black"/>
<path d="M221.549 148.285V130.298C221.549 128.462 221.116 126.994 220.338 125.893C219.561 124.792 218.437 124.241 217.14 124.241C215.757 124.241 214.633 124.883 213.769 126.076C212.905 127.269 212.386 128.83 212.386 130.573V148.377H204.952V130.481C204.952 129.288 204.866 128.279 204.693 127.545C204.52 126.811 204.26 126.168 203.915 125.709C203.569 125.25 203.05 124.975 202.532 124.792C201.927 124.608 201.235 124.516 200.457 124.516C197.432 124.516 195.962 126.443 195.962 130.298V148.377H188.528V118.551H195.443V122.864C196.394 120.845 197.518 119.561 198.901 118.826C200.198 118.092 201.84 117.725 203.655 117.725C204.606 117.725 205.471 117.817 206.162 118C206.94 118.184 207.545 118.459 208.15 118.826C208.755 119.193 209.274 119.744 209.793 120.295C210.311 120.937 210.83 121.671 211.349 122.497C212.127 120.845 213.077 119.652 214.374 118.918C215.671 118.184 217.14 117.817 218.955 117.817C220.338 117.817 221.635 118.092 222.845 118.551C224.055 119.102 225.006 119.744 225.871 120.662C226.735 121.58 227.34 122.589 227.859 123.874C228.291 125.067 228.55 126.352 228.55 127.728V148.377H221.549V148.285Z" fill="black"/>
<path d="M240.047 135.437C240.133 137.731 240.738 139.475 241.862 140.852C242.986 142.228 244.455 142.871 246.271 142.871C247.481 142.871 248.518 142.595 249.469 141.953C250.42 141.402 251.025 140.576 251.284 139.475H258.891C258.027 142.504 256.471 144.89 254.31 146.542C252.149 148.193 249.555 149.019 246.53 149.019C237.194 149.019 232.526 143.605 232.526 132.776C232.526 130.481 232.872 128.371 233.477 126.535C234.082 124.7 234.947 123.048 236.157 121.763C237.281 120.386 238.75 119.377 240.393 118.735C242.035 118 244.023 117.633 246.184 117.633C250.506 117.633 253.791 119.102 256.038 122.038C258.286 124.975 259.41 129.38 259.41 135.345H240.047V135.437ZM251.716 130.481C251.716 129.38 251.457 128.462 251.198 127.636C250.852 126.811 250.42 126.168 249.901 125.617C249.383 125.067 248.777 124.7 248.086 124.424C247.394 124.149 246.703 124.057 246.011 124.057C244.542 124.057 243.245 124.608 242.121 125.801C240.998 126.994 240.393 128.554 240.306 130.573H251.716V130.481Z" fill="black"/>
<path d="M281.539 148.285V130.298C281.539 128.004 281.193 126.443 280.415 125.618C279.724 124.792 278.427 124.424 276.698 124.424C272.895 124.424 270.907 126.719 270.907 131.307V148.377H263.559V118.551H270.647V122.864C271.512 121.212 272.722 119.928 274.105 119.01C275.575 118.184 277.39 117.725 279.724 117.725C281.02 117.725 282.317 117.909 283.441 118.368C284.564 118.826 285.602 119.469 286.38 120.295C287.158 121.121 287.849 122.222 288.281 123.415C288.714 124.608 288.973 126.076 288.973 127.728V148.377H281.539V148.285Z" fill="black"/>
<path d="M309.718 128.738H316.633V137.181C316.633 138.741 316.374 140.301 315.942 141.678C315.51 143.146 314.818 144.339 313.867 145.532C312.917 146.634 311.793 147.551 310.323 148.194C308.94 148.836 307.211 149.203 305.223 149.203C303.149 149.203 301.42 148.836 299.95 148.194C298.481 147.551 297.357 146.725 296.406 145.624C295.455 144.523 294.764 143.238 294.418 141.77C293.986 140.301 293.813 138.741 293.813 137.181V107.722H301.074V118.643H316.547V124.241H301.074V136.447C301.074 138.374 301.42 139.843 302.111 140.852C302.803 141.861 303.84 142.412 305.396 142.412C306.866 142.412 307.989 141.953 308.681 140.944C309.372 139.934 309.718 138.466 309.718 136.63V128.738Z" fill="black"/>
<path d="M344.727 73.8576C347.448 73.8576 349.654 71.5156 349.654 68.6265C349.654 65.7375 347.448 63.3955 344.727 63.3955C342.006 63.3955 339.8 65.7375 339.8 68.6265C339.8 71.5156 342.006 73.8576 344.727 73.8576Z" fill="black"/>
<path d="M392.442 17.6008C392.702 16.8666 392.875 16.1324 392.961 15.3982C393.825 8.14822 388.12 1.99947 381.205 2.82542C379.39 3.10074 377.661 3.83492 376.191 5.02796C374.549 2.36656 371.783 0.439342 368.671 0.0722526C362.534 -0.661927 357.347 4.29378 357.088 10.6261C356.656 10.5343 356.224 10.5343 355.791 10.5343C349.827 10.5343 345.073 15.7653 345.332 22.1894C345.505 25.3097 346.888 28.1546 348.962 30.0818C346.974 32.1926 345.764 35.2211 345.937 38.5249C346.196 44.2148 350.605 48.8952 355.964 49.1705C356.915 49.2622 357.866 49.0787 358.817 48.8952C359.422 54.0344 363.571 58.1642 368.498 58.3477C372.647 58.5313 376.364 56.0534 378.093 52.4743C379.735 53.5756 381.637 54.218 383.712 54.218C389.676 54.218 394.517 48.8952 394.171 42.3793C394.085 41.0027 393.739 39.7179 393.22 38.4331C397.024 36.873 399.79 33.1103 399.963 28.6135C400.395 23.3824 397.024 18.8856 392.442 17.6008ZM387.602 29.1641L380.859 33.0185L382.847 40.8192C383.02 41.6451 382.329 42.2875 381.551 42.0122L374.549 38.8002L370.054 45.316C369.622 45.9584 368.585 45.7749 368.412 45.0407L366.424 37.2401L358.817 37.6072C358.039 37.6072 357.52 36.6894 358.039 36.047L362.534 29.5312L357.52 23.4742C357.001 22.8318 357.434 21.9141 358.212 21.8223L365.818 21.4552L367.202 13.471C367.374 12.6451 368.325 12.3698 368.844 13.0122L373.857 19.0691L380.6 15.2147C381.291 14.8476 382.069 15.49 381.983 16.2242L380.6 24.2084L387.602 27.4204C388.293 27.7875 388.293 28.797 387.602 29.1641Z" fill="black"/>
</svg>
