<svg width="571" height="168" viewBox="0 0 571 168" fill="none" xmlns="http://www.w3.org/2000/svg">
<path d="M71.232 36V30.96C71.232 28.008 71.184 24.6 71.064 23.16H71.112C71.952 25.08 76.176 32.76 77.952 36H82.152V19.464H78.912V24.36C78.912 27.072 78.912 29.952 79.104 31.68H79.056C78.288 29.88 74.472 23.16 72.408 19.464H67.968V36H71.232ZM92.4052 19.224C87.2692 19.224 84.2692 22.92 84.2692 27.72C84.2692 32.472 86.9812 36.24 92.1892 36.24C97.5652 36.24 100.325 32.28 100.325 27.672C100.325 22.608 97.2532 19.224 92.4052 19.224ZM92.2612 22.128C95.3332 22.128 96.6292 24.576 96.6292 27.72C96.6292 30.672 95.5012 33.336 92.3092 33.336C89.3812 33.336 87.9652 30.888 87.9652 27.648C87.9652 24.432 89.2612 22.128 92.2612 22.128ZM101.261 31.152C101.645 34.176 103.877 36.24 108.077 36.24C112.445 36.24 114.725 34.152 114.725 31.152C114.725 28.8 113.669 27.024 108.869 25.872C106.181 25.272 105.485 24.792 105.485 23.64C105.485 22.464 106.349 21.864 107.813 21.864C109.949 21.864 110.501 22.968 110.693 24H114.293C114.053 21.576 112.301 19.224 107.909 19.224C103.997 19.224 101.837 21.168 101.837 24.048C101.837 26.28 102.941 27.936 107.453 28.992C110.285 29.64 111.077 30.216 111.077 31.584C111.077 32.784 110.261 33.552 108.341 33.552C106.421 33.552 105.245 32.808 104.861 31.152H101.261ZM123.897 19.224C118.761 19.224 115.761 22.92 115.761 27.72C115.761 32.472 118.473 36.24 123.681 36.24C129.057 36.24 131.817 32.28 131.817 27.672C131.817 22.608 128.745 19.224 123.897 19.224ZM123.753 22.128C126.825 22.128 128.121 24.576 128.121 27.72C128.121 30.672 126.993 33.336 123.801 33.336C120.873 33.336 119.457 30.888 119.457 27.648C119.457 24.432 120.753 22.128 123.753 22.128ZM136.913 36H140.489V22.392H145.505V19.464H131.873V22.392H136.913V36ZM152.566 29.376C155.23 29.376 155.686 30.24 155.686 32.04V32.28C155.686 34.032 155.734 35.28 156.022 36H159.43C159.19 35.232 159.19 33.96 159.19 32.856V32.04C159.19 29.064 157.942 28.224 157.126 27.912C158.326 27.408 159.526 26.208 159.526 24C159.526 21.432 157.582 19.464 153.982 19.464H146.71V36H150.214V29.376H152.566ZM150.214 22.296H153.286C155.038 22.296 155.926 23.064 155.926 24.408C155.926 25.776 155.158 26.52 153.214 26.52H150.214V22.296ZM169.015 19.224C163.879 19.224 160.879 22.92 160.879 27.72C160.879 32.472 163.591 36.24 168.799 36.24C174.175 36.24 176.935 32.28 176.935 27.672C176.935 22.608 173.863 19.224 169.015 19.224ZM168.871 22.128C171.943 22.128 173.239 24.576 173.239 27.72C173.239 30.672 172.111 33.336 168.919 33.336C165.991 33.336 164.575 30.888 164.575 27.648C164.575 24.432 165.871 22.128 168.871 22.128ZM177.87 31.152C178.254 34.176 180.486 36.24 184.686 36.24C189.054 36.24 191.334 34.152 191.334 31.152C191.334 28.8 190.278 27.024 185.478 25.872C182.79 25.272 182.094 24.792 182.094 23.64C182.094 22.464 182.958 21.864 184.422 21.864C186.558 21.864 187.11 22.968 187.302 24H190.902C190.662 21.576 188.91 19.224 184.518 19.224C180.606 19.224 178.446 21.168 178.446 24.048C178.446 26.28 179.55 27.936 184.062 28.992C186.894 29.64 187.686 30.216 187.686 31.584C187.686 32.784 186.87 33.552 184.95 33.552C183.03 33.552 181.854 32.808 181.47 31.152H177.87Z" fill="black"/>
<line y1="24.6641" x2="48" y2="24.6641" stroke="black" stroke-width="5"/>
<path d="M28.435 83.285C27.72 85.54 26.07 89.115 20.68 89.115C13.365 89.115 11.11 82.35 11.11 75.97C11.11 69.04 13.695 62.935 20.46 62.935C25.63 62.935 27.665 65.85 28.49 68.82H36.685C35.75 62.44 30.855 56.555 20.735 56.555C8.525 56.555 2.64 65.85 2.64 76.245C2.64 87.025 8.305 95.55 20.35 95.55C29.865 95.55 35.2 90.38 36.685 83.285H28.435ZM54.1117 65.85C45.0917 65.85 39.7567 72.065 39.7567 80.865C39.7567 89.335 44.9267 95.66 53.7267 95.66C62.7467 95.66 67.9167 89.335 67.9167 80.7C67.9167 71.79 62.4717 65.85 54.1117 65.85ZM53.7817 72.065C57.7417 72.065 59.9417 74.87 59.9417 80.81C59.9417 86.255 57.7967 89.5 53.8917 89.5C50.0967 89.5 47.7317 86.255 47.7317 80.755C47.7317 74.76 50.1517 72.065 53.7817 72.065ZM72.366 95H80.286V79.16C80.286 74.1 82.156 72.23 85.511 72.23C89.031 72.23 90.076 74.54 90.076 77.785V95H97.941V76.905C97.941 69.755 94.256 65.85 88.536 65.85C83.531 65.85 81.221 68.38 80.286 70.14C80.231 69.26 80.121 67.28 79.956 66.51H72.311C72.366 68.655 72.366 71.295 72.366 73.715V95ZM101.505 86.42C102.165 91.48 105.685 95.66 114.375 95.66C123.01 95.66 126.64 91.37 126.64 86.64C126.64 82.46 125.265 79.215 115.75 77.015C111.13 75.915 110.25 75.255 110.25 73.825C110.25 72.56 111.13 71.405 113.715 71.405C117.4 71.405 118.115 73.385 118.39 74.43H125.87C125.65 70.58 122.68 65.85 114.045 65.85C105.465 65.85 102.55 70.305 102.55 74.485C102.55 78.5 104.035 81.36 113.33 83.67C117.4 84.66 118.61 85.375 118.61 87.19C118.61 88.95 117.565 89.995 114.65 89.995C111.735 89.995 109.865 88.73 109.26 86.42H101.505ZM155.494 66.51H147.629V81.69C147.629 87.3 146.144 89.225 142.569 89.225C139.159 89.225 138.169 86.64 138.169 83.505V66.51H130.304V85.1C130.304 92.14 133.989 95.66 139.764 95.66C143.449 95.66 145.924 94.56 147.629 91.7C147.684 92.69 147.739 94.23 147.849 95H155.549C155.494 92.47 155.494 89.445 155.494 86.75V66.51ZM169.506 95V54.85H161.586V95H169.506ZM172.822 72.45H177.222V87.41C177.222 92.415 179.037 95.385 184.592 95.385C186.187 95.385 188.332 95.385 189.872 94.835V89.445C189.322 89.5 188.552 89.5 188.112 89.5C185.747 89.5 185.087 88.675 185.087 86.53V72.45H190.697V66.51H185.087V58.81H177.222V66.51H172.822V72.45ZM194.069 95H201.989V66.51H194.069V95ZM201.989 61.89V54.85H194.069V61.89H201.989ZM208.109 95H216.029V79.16C216.029 74.1 217.899 72.23 221.254 72.23C224.774 72.23 225.819 74.54 225.819 77.785V95H233.684V76.905C233.684 69.755 229.999 65.85 224.279 65.85C219.274 65.85 216.964 68.38 216.029 70.14C215.974 69.26 215.864 67.28 215.699 66.51H208.054C208.109 68.655 208.109 71.295 208.109 73.715V95ZM265.562 74.705C265.562 71.955 265.617 69.095 265.617 66.51H258.192C258.137 67.005 257.917 68.71 257.862 69.48C257.422 68.16 255.387 65.85 250.492 65.85C243.397 65.85 238.062 71.955 238.062 80.865C238.062 88.51 242.352 94.67 249.832 94.67C254.012 94.67 256.377 93.13 257.862 90.655V92.03C257.862 97.585 256.872 100.72 251.757 100.72C248.732 100.72 247.302 99.4 246.752 97.42H238.722C238.997 100.665 241.032 106.44 251.427 106.44C262.207 106.44 265.562 100.665 265.562 91.535V74.705ZM246.147 80.535C246.147 74.815 248.842 72.175 252.252 72.175C257.257 72.175 258.082 75.475 258.082 80.26C258.082 85.045 256.817 88.29 252.087 88.29C248.622 88.29 246.147 85.43 246.147 80.535ZM283.903 95H291.823V79.16C291.823 74.1 293.693 72.23 297.048 72.23C300.568 72.23 301.613 74.54 301.613 77.785V95H309.478V76.905C309.478 69.755 305.793 65.85 300.073 65.85C295.068 65.85 292.758 68.38 291.823 70.14C291.768 69.26 291.658 67.28 291.493 66.51H283.848C283.903 68.655 283.903 71.295 283.903 73.715V95ZM340.531 82.46C340.641 81.635 340.641 81.03 340.641 80.04C340.641 72.945 337.286 65.85 327.551 65.85C318.366 65.85 313.801 72.23 313.801 81.195C313.801 88.675 317.871 95.66 327.276 95.66C336.186 95.66 339.321 89.94 340.311 86.475H332.446C331.676 88.18 330.741 89.5 327.441 89.5C323.536 89.5 321.721 86.035 321.721 82.46H340.531ZM321.886 77.62C322.216 74.1 323.756 71.515 327.496 71.515C331.346 71.515 332.666 74.32 332.721 77.62H321.886ZM342.208 72.45H346.608V87.41C346.608 92.415 348.423 95.385 353.978 95.385C355.573 95.385 357.718 95.385 359.258 94.835V89.445C358.708 89.5 357.938 89.5 357.498 89.5C355.133 89.5 354.473 88.675 354.473 86.53V72.45H360.083V66.51H354.473V58.81H346.608V66.51H342.208V72.45ZM361.623 66.51L369.708 95H378.178C380.708 84.77 382.248 78.335 382.688 74.76H382.743C383.403 78.5 384.723 84.22 387.088 95H395.503L403.973 66.51H396.163C392.863 80.535 391.983 84.77 391.378 87.685H391.323C390.938 84.66 389.948 80.535 386.758 66.51H379.443C375.978 80.37 375.153 84.825 374.548 88.015H374.438C373.888 84.44 372.513 77.95 369.928 66.51H361.623ZM419.418 65.85C410.398 65.85 405.063 72.065 405.063 80.865C405.063 89.335 410.233 95.66 419.033 95.66C428.053 95.66 433.223 89.335 433.223 80.7C433.223 71.79 427.778 65.85 419.418 65.85ZM419.088 72.065C423.048 72.065 425.248 74.87 425.248 80.81C425.248 86.255 423.103 89.5 419.198 89.5C415.403 89.5 413.038 86.255 413.038 80.755C413.038 74.76 415.458 72.065 419.088 72.065ZM437.618 95H445.538V82.57C445.538 74.76 448.948 73.22 454.668 73.385V65.85C449.828 65.905 446.803 68.27 445.538 71.515C445.538 69.975 445.428 67.17 445.318 66.51H437.563C437.618 68.93 437.618 71.405 437.618 74.265V95ZM465.968 54.85H458.048V95H465.968V85.87L469.598 82.35L476.803 95H485.713L474.878 77.29L484.778 66.51H475.758C471.798 71.295 468.058 75.695 465.968 78.555V54.85ZM28.435 144.285C27.72 146.54 26.07 150.115 20.68 150.115C13.365 150.115 11.11 143.35 11.11 136.97C11.11 130.04 13.695 123.935 20.46 123.935C25.63 123.935 27.665 126.85 28.49 129.82H36.685C35.75 123.44 30.855 117.555 20.735 117.555C8.525 117.555 2.64 126.85 2.64 137.245C2.64 148.025 8.305 156.55 20.35 156.55C29.865 156.55 35.2 151.38 36.685 144.285H28.435ZM54.1117 126.85C45.0917 126.85 39.7567 133.065 39.7567 141.865C39.7567 150.335 44.9267 156.66 53.7267 156.66C62.7467 156.66 67.9167 150.335 67.9167 141.7C67.9167 132.79 62.4717 126.85 54.1117 126.85ZM53.7817 133.065C57.7417 133.065 59.9417 135.87 59.9417 141.81C59.9417 147.255 57.7967 150.5 53.8917 150.5C50.0967 150.5 47.7317 147.255 47.7317 141.755C47.7317 135.76 50.1517 133.065 53.7817 133.065ZM95.7999 136.695C95.7999 129.875 91.6199 126.905 84.0299 126.85C75.3399 126.85 72.2049 130.92 71.8199 135.98H79.2999C79.6299 133.89 80.3999 132.515 83.6999 132.515C87.3849 132.515 88.0999 134.495 88.0999 136.53V138.235H84.0299C75.6699 138.235 70.4999 141.26 70.4999 147.75C70.4999 152.15 73.3599 156.66 80.2349 156.66C85.2949 156.66 87.2199 154.79 88.2649 153.195C88.2649 153.91 88.4299 155.45 88.6499 156H96.1849C96.0199 155.34 95.7999 151.38 95.7999 148.63V136.695ZM88.0999 143.79C88.0999 147.53 87.4949 151.05 82.4899 151.05C79.6299 151.05 78.3649 149.29 78.3649 147.255C78.3649 144.505 80.1249 143.02 84.9099 143.02H88.0999V143.79ZM118.651 146.815C117.936 148.96 116.506 150.555 113.756 150.555C110.346 150.555 108.146 147.805 108.146 141.7C108.146 136.2 110.181 133.065 113.811 133.065C116.891 133.065 118.211 134.66 118.706 136.97H126.351C126.241 133.78 123.546 126.85 113.976 126.85C105.286 126.85 100.171 133.56 100.171 141.975C100.171 150.555 104.736 156.66 113.591 156.66C122.061 156.66 125.416 151.545 126.351 146.815H118.651ZM130.36 115.85V156H138.28V140.875C138.28 136.53 139.105 133.23 143.505 133.23C146.805 133.23 148.125 135.21 148.125 138.895V156H155.935V137.74C155.935 130.04 151.7 126.85 146.42 126.85C141.8 126.85 139.49 129.05 138.28 130.92V115.85H130.36ZM191.276 146.815C190.561 148.96 189.131 150.555 186.381 150.555C182.971 150.555 180.771 147.805 180.771 141.7C180.771 136.2 182.806 133.065 186.436 133.065C189.516 133.065 190.836 134.66 191.331 136.97H198.976C198.866 133.78 196.171 126.85 186.601 126.85C177.911 126.85 172.796 133.56 172.796 141.975C172.796 150.555 177.361 156.66 186.216 156.66C194.686 156.66 198.041 151.545 198.976 146.815H191.276ZM215.958 126.85C206.938 126.85 201.603 133.065 201.603 141.865C201.603 150.335 206.773 156.66 215.573 156.66C224.593 156.66 229.763 150.335 229.763 141.7C229.763 132.79 224.318 126.85 215.958 126.85ZM215.628 133.065C219.588 133.065 221.788 135.87 221.788 141.81C221.788 147.255 219.643 150.5 215.738 150.5C211.943 150.5 209.578 147.255 209.578 141.755C209.578 135.76 211.998 133.065 215.628 133.065ZM234.158 156H241.968V140.105C241.968 135.21 243.508 133.23 246.698 133.23C250.053 133.23 250.768 135.65 250.768 138.565V156H258.523V139.72C258.523 135.375 259.843 133.175 263.143 133.175C266.388 133.175 267.323 135.705 267.323 138.29V156H275.023V137.3C275.023 129.93 270.953 126.85 266.003 126.85C261.328 126.85 258.908 128.885 257.203 131.195C256.213 128.995 253.958 126.85 249.888 126.85C245.708 126.85 243.398 128.83 241.968 130.92C241.913 129.82 241.748 128.225 241.638 127.51H234.103C234.158 129.985 234.158 132.405 234.158 134.88V156ZM281.068 156H288.878V140.105C288.878 135.21 290.418 133.23 293.608 133.23C296.963 133.23 297.678 135.65 297.678 138.565V156H305.433V139.72C305.433 135.375 306.753 133.175 310.053 133.175C313.298 133.175 314.233 135.705 314.233 138.29V156H321.933V137.3C321.933 129.93 317.863 126.85 312.913 126.85C308.238 126.85 305.818 128.885 304.113 131.195C303.123 128.995 300.868 126.85 296.798 126.85C292.618 126.85 290.308 128.83 288.878 130.92C288.823 129.82 288.658 128.225 288.548 127.51H281.013C281.068 129.985 281.068 132.405 281.068 134.88V156ZM353.058 127.51H345.193V142.69C345.193 148.3 343.708 150.225 340.133 150.225C336.723 150.225 335.733 147.64 335.733 144.505V127.51H327.868V146.1C327.868 153.14 331.553 156.66 337.328 156.66C341.013 156.66 343.488 155.56 345.193 152.7C345.248 153.69 345.303 155.23 345.413 156H353.113C353.058 153.47 353.058 150.445 353.058 147.75V127.51ZM359.206 156H367.126V140.16C367.126 135.1 368.996 133.23 372.351 133.23C375.871 133.23 376.916 135.54 376.916 138.785V156H384.781V137.905C384.781 130.755 381.096 126.85 375.376 126.85C370.371 126.85 368.061 129.38 367.126 131.14C367.071 130.26 366.961 128.28 366.796 127.51H359.151C359.206 129.655 359.206 132.295 359.206 134.715V156ZM390.753 156H398.673V127.51H390.753V156ZM398.673 122.89V115.85H390.753V122.89H398.673ZM401.989 133.45H406.389V148.41C406.389 153.415 408.204 156.385 413.759 156.385C415.354 156.385 417.499 156.385 419.039 155.835V150.445C418.489 150.5 417.719 150.5 417.279 150.5C414.914 150.5 414.254 149.675 414.254 147.53V133.45H419.864V127.51H414.254V119.81H406.389V127.51H401.989V133.45ZM421.334 127.51L431.729 156.88C430.629 160.015 429.199 161.005 426.284 161.005C425.624 161.005 424.799 160.95 424.249 160.895V167.22C425.624 167.385 427.219 167.44 427.934 167.44C434.754 167.44 437.064 165.02 439.759 156.825L449.329 127.51H441.464C438.109 139.5 436.404 145.88 435.799 148.74H435.744C435.304 146.1 432.719 137.355 429.804 127.51H421.334Z" fill="black"/>
<path d="M509.927 80.8598C512.648 80.8598 514.854 78.7079 514.854 76.0534C514.854 73.399 512.648 71.2471 509.927 71.2471C507.206 71.2471 505 73.399 505 76.0534C505 78.7079 507.206 80.8598 509.927 80.8598Z" fill="black"/>
<path d="M557.642 29.1716C557.902 28.497 558.074 27.8225 558.161 27.1479C559.025 20.4866 553.32 14.8371 546.405 15.596C544.59 15.849 542.861 16.5235 541.391 17.6197C539.749 15.1744 536.983 13.4037 533.871 13.0664C527.734 12.3918 522.547 16.9451 522.288 22.7632C521.856 22.6789 521.423 22.6789 520.991 22.6789C515.027 22.6789 510.273 27.4852 510.532 33.3876C510.705 36.2545 512.088 38.8685 514.162 40.6392C512.174 42.5786 510.964 45.3611 511.137 48.3967C511.396 53.6246 515.805 57.9249 521.164 58.1779C522.115 58.2622 523.066 58.0935 524.017 57.9249C524.622 62.6469 528.771 66.4413 533.698 66.6099C537.847 66.7786 541.564 64.5019 543.293 61.2134C544.935 62.2253 546.837 62.8155 548.912 62.8155C554.876 62.8155 559.717 57.9249 559.371 51.9382C559.285 50.6733 558.939 49.4929 558.42 48.3124C562.224 46.8789 564.99 43.4218 565.163 39.2901C565.595 34.4838 562.224 30.3521 557.642 29.1716ZM552.802 39.796L546.059 43.3375L548.047 50.5047C548.22 51.2636 547.529 51.8538 546.751 51.6009L539.749 48.6496L535.254 54.6364C534.822 55.2267 533.785 55.058 533.612 54.3834L531.624 47.2162L524.017 47.5535C523.239 47.5535 522.72 46.7103 523.239 46.12L527.734 40.1333L522.72 34.5681C522.201 33.9779 522.634 33.1347 523.412 33.0504L531.018 32.7131L532.401 25.3772C532.574 24.6183 533.525 24.3653 534.044 24.9556L539.057 30.5207L545.8 26.9793C546.491 26.642 547.269 27.2322 547.183 27.9068L545.8 35.2427L552.802 38.1939C553.493 38.5312 553.493 39.4587 552.802 39.796Z" fill="black"/>
</svg>
