<svg width="578" height="99" viewBox="0 0 578 99" fill="none" xmlns="http://www.w3.org/2000/svg">
<path d="M0.815002 75.89C1.695 82.82 6.81 87.55 16.435 87.55C26.445 87.55 31.67 82.765 31.67 75.89C31.67 70.5 29.25 66.43 18.25 63.79C12.09 62.415 10.495 61.315 10.495 58.675C10.495 55.98 12.475 54.605 15.83 54.605C20.725 54.605 21.99 57.135 22.43 59.5H30.68C30.13 53.945 26.115 48.555 16.05 48.555C7.085 48.555 2.135 53.01 2.135 59.61C2.135 64.725 4.665 68.52 15.005 70.94C21.495 72.425 23.31 73.745 23.31 76.88C23.31 79.63 21.44 81.39 17.04 81.39C12.64 81.39 9.945 79.685 9.065 75.89H0.815002Z" fill="black"/>
<path d="M32.8648 58.51L43.2598 87.88C42.1598 91.015 40.7298 92.005 37.8148 92.005C37.1548 92.005 36.3298 91.95 35.7798 91.895V98.22C37.1548 98.385 38.7498 98.44 39.4648 98.44C46.2848 98.44 48.5948 96.02 51.2898 87.825L60.8598 58.51H52.9948C49.6398 70.5 47.9348 76.88 47.3298 79.74H47.2748C46.8348 77.1 44.2498 68.355 41.3348 58.51H32.8648Z" fill="black"/>
<path d="M64.0076 87H71.9276V71.16C71.9276 66.1 73.7976 64.23 77.1526 64.23C80.6726 64.23 81.7176 66.54 81.7176 69.785V87H89.5826V68.905C89.5826 61.755 85.8976 57.85 80.1776 57.85C75.1726 57.85 72.8626 60.38 71.9276 62.14C71.8726 61.26 71.7626 59.28 71.5976 58.51H63.9526C64.0076 60.655 64.0076 63.295 64.0076 65.715V87Z" fill="black"/>
<path d="M118.883 67.695C118.883 60.875 114.703 57.905 107.113 57.85C98.4229 57.85 95.2879 61.92 94.9029 66.98H102.383C102.713 64.89 103.483 63.515 106.783 63.515C110.468 63.515 111.183 65.495 111.183 67.53V69.235H107.113C98.7529 69.235 93.5829 72.26 93.5829 78.75C93.5829 83.15 96.4429 87.66 103.318 87.66C108.378 87.66 110.303 85.79 111.348 84.195C111.348 84.91 111.513 86.45 111.733 87H119.268C119.103 86.34 118.883 82.38 118.883 79.63V67.695ZM111.183 74.79C111.183 78.53 110.578 82.05 105.573 82.05C102.713 82.05 101.448 80.29 101.448 78.255C101.448 75.505 103.208 74.02 107.993 74.02H111.183V74.79Z" fill="black"/>
<path d="M132.821 97.89V84.47C133.921 86.12 136.011 87.66 140.026 87.66C146.901 87.66 152.401 82.105 152.401 72.04C152.401 63.24 147.506 57.85 141.071 57.85C136.561 57.85 134.031 59.995 132.821 62.085C132.821 61.04 132.656 59.28 132.546 58.51H124.901C124.956 60.82 124.956 63.075 124.956 65.385V97.89H132.821ZM144.426 72.37C144.426 78.145 142.391 81.39 138.211 81.39C133.976 81.39 132.491 78.255 132.491 72.81C132.491 67.09 134.086 64.175 138.541 64.175C142.336 64.175 144.426 67.145 144.426 72.37Z" fill="black"/>
<path d="M155.116 78.42C155.776 83.48 159.296 87.66 167.986 87.66C176.621 87.66 180.251 83.37 180.251 78.64C180.251 74.46 178.876 71.215 169.361 69.015C164.741 67.915 163.861 67.255 163.861 65.825C163.861 64.56 164.741 63.405 167.326 63.405C171.011 63.405 171.726 65.385 172.001 66.43H179.481C179.261 62.58 176.291 57.85 167.656 57.85C159.076 57.85 156.161 62.305 156.161 66.485C156.161 70.5 157.646 73.36 166.941 75.67C171.011 76.66 172.221 77.375 172.221 79.19C172.221 80.95 171.176 81.995 168.261 81.995C165.346 81.995 163.476 80.73 162.871 78.42H155.116Z" fill="black"/>
<path d="M184.401 87H192.321V58.51H184.401V87ZM192.321 53.89V46.85H184.401V53.89H192.321Z" fill="black"/>
<path d="M196.193 78.42C196.853 83.48 200.373 87.66 209.063 87.66C217.698 87.66 221.328 83.37 221.328 78.64C221.328 74.46 219.953 71.215 210.438 69.015C205.818 67.915 204.938 67.255 204.938 65.825C204.938 64.56 205.818 63.405 208.403 63.405C212.088 63.405 212.803 65.385 213.078 66.43H220.558C220.338 62.58 217.368 57.85 208.733 57.85C200.153 57.85 197.238 62.305 197.238 66.485C197.238 70.5 198.723 73.36 208.018 75.67C212.088 76.66 213.298 77.375 213.298 79.19C213.298 80.95 212.253 81.995 209.338 81.995C206.423 81.995 204.553 80.73 203.948 78.42H196.193Z" fill="black"/>
<path d="M245.717 46.85H237.797V87H245.717V77.87L249.347 74.35L256.552 87H265.462L254.627 69.29L264.527 58.51H255.507C251.547 63.295 247.807 67.695 245.717 70.555V46.85Z" fill="black"/>
<path d="M267.092 87H275.012V71.16C275.012 66.1 276.882 64.23 280.237 64.23C283.757 64.23 284.802 66.54 284.802 69.785V87H292.667V68.905C292.667 61.755 288.982 57.85 283.262 57.85C278.257 57.85 275.947 60.38 275.012 62.14C274.957 61.26 274.847 59.28 274.682 58.51H267.037C267.092 60.655 267.092 63.295 267.092 65.715V87Z" fill="black"/>
<path d="M311.344 57.85C302.324 57.85 296.989 64.065 296.989 72.865C296.989 81.335 302.159 87.66 310.959 87.66C319.979 87.66 325.149 81.335 325.149 72.7C325.149 63.79 319.704 57.85 311.344 57.85ZM311.014 64.065C314.974 64.065 317.174 66.87 317.174 72.81C317.174 78.255 315.029 81.5 311.124 81.5C307.329 81.5 304.964 78.255 304.964 72.755C304.964 66.76 307.384 64.065 311.014 64.065Z" fill="black"/>
<path d="M326.582 58.51L334.667 87H343.137C345.667 76.77 347.207 70.335 347.647 66.76H347.702C348.362 70.5 349.682 76.22 352.047 87H360.462L368.932 58.51H361.122C357.822 72.535 356.942 76.77 356.337 79.685H356.282C355.897 76.66 354.907 72.535 351.717 58.51H344.402C340.937 72.37 340.112 76.825 339.507 80.015H339.397C338.847 76.44 337.472 69.95 334.887 58.51H326.582Z" fill="black"/>
<path d="M379.916 87V46.85H371.996V87H379.916Z" fill="black"/>
<path d="M411.061 74.46C411.171 73.635 411.171 73.03 411.171 72.04C411.171 64.945 407.816 57.85 398.081 57.85C388.896 57.85 384.331 64.23 384.331 73.195C384.331 80.675 388.401 87.66 397.806 87.66C406.716 87.66 409.851 81.94 410.841 78.475H402.976C402.206 80.18 401.271 81.5 397.971 81.5C394.066 81.5 392.251 78.035 392.251 74.46H411.061ZM392.416 69.62C392.746 66.1 394.286 63.515 398.026 63.515C401.876 63.515 403.196 66.32 403.251 69.62H392.416Z" fill="black"/>
<path d="M434.232 46.85V60.6C433.627 59.335 431.427 57.85 427.302 57.85C419.217 57.85 414.377 64.23 414.377 72.975C414.377 81.885 418.942 87.66 426.147 87.66C430.382 87.66 432.857 86.285 434.232 84.03C434.287 84.69 434.452 86.12 434.617 87H442.152C442.097 84.415 442.097 81.775 442.097 79.19V46.85H434.232ZM422.462 72.81C422.462 67.42 424.552 64.175 428.677 64.175C433.847 64.175 434.562 67.86 434.562 72.755C434.562 76.825 433.902 81.335 428.512 81.335C424.607 81.335 422.462 78.365 422.462 72.81Z" fill="black"/>
<path d="M473.963 66.705C473.963 63.955 474.018 61.095 474.018 58.51H466.593C466.538 59.005 466.318 60.71 466.263 61.48C465.823 60.16 463.788 57.85 458.893 57.85C451.798 57.85 446.463 63.955 446.463 72.865C446.463 80.51 450.753 86.67 458.233 86.67C462.413 86.67 464.778 85.13 466.263 82.655V84.03C466.263 89.585 465.273 92.72 460.158 92.72C457.133 92.72 455.703 91.4 455.153 89.42H447.123C447.398 92.665 449.433 98.44 459.828 98.44C470.608 98.44 473.963 92.665 473.963 83.535V66.705ZM454.548 72.535C454.548 66.815 457.243 64.175 460.653 64.175C465.658 64.175 466.483 67.475 466.483 72.26C466.483 77.045 465.218 80.29 460.488 80.29C457.023 80.29 454.548 77.43 454.548 72.535Z" fill="black"/>
<path d="M505.224 74.46C505.334 73.635 505.334 73.03 505.334 72.04C505.334 64.945 501.979 57.85 492.244 57.85C483.059 57.85 478.494 64.23 478.494 73.195C478.494 80.675 482.564 87.66 491.969 87.66C500.879 87.66 504.014 81.94 505.004 78.475H497.139C496.369 80.18 495.434 81.5 492.134 81.5C488.229 81.5 486.414 78.035 486.414 74.46H505.224ZM486.579 69.62C486.909 66.1 488.449 63.515 492.189 63.515C496.039 63.515 497.359 66.32 497.414 69.62H486.579Z" fill="black"/>
<path d="M522.305 75.0723C525.003 75.0723 527.19 72.6925 527.19 69.7568C527.19 66.8212 525.003 64.4414 522.305 64.4414C519.607 64.4414 517.419 66.8212 517.419 69.7568C517.419 72.6925 519.607 75.0723 522.305 75.0723Z" fill="black"/>
<path d="M569.616 17.8906C569.873 17.1444 570.044 16.3981 570.13 15.6518C570.987 8.28241 565.33 2.0324 558.474 2.87196C556.674 3.15181 554.96 3.89808 553.503 5.11077C551.874 2.40554 549.131 0.446578 546.046 0.0734425C539.961 -0.672828 534.818 4.3645 534.561 10.8011C534.133 10.7078 533.704 10.7078 533.276 10.7078C527.362 10.7078 522.648 16.025 522.905 22.5548C523.076 25.7265 524.448 28.6183 526.505 30.5772C524.533 32.7228 523.333 35.8011 523.505 39.1593C523.762 44.9429 528.133 49.7004 533.447 49.9803C534.39 50.0735 535.332 49.887 536.275 49.7004C536.875 54.9243 540.989 59.1221 545.875 59.3086C549.988 59.4952 553.674 56.9765 555.388 53.3385C557.017 54.4579 558.902 55.1109 560.959 55.1109C566.873 55.1109 571.673 49.7004 571.33 43.0773C571.244 41.678 570.901 40.372 570.387 39.0661C574.158 37.4802 576.901 33.6556 577.072 29.0847C577.501 23.7675 574.158 19.1966 569.616 17.8906ZM564.816 29.6444L558.131 33.5623L560.102 41.4914C560.273 42.331 559.588 42.984 558.816 42.7041L551.874 39.4392L547.417 46.0623C546.989 46.7153 545.96 46.5288 545.789 45.7825L543.818 37.8534L536.275 38.2265C535.504 38.2265 534.99 37.2937 535.504 36.6407L539.961 30.0175L534.99 23.8608C534.475 23.2078 534.904 22.275 535.675 22.1817L543.218 21.8086L544.589 13.6929C544.76 12.8533 545.703 12.5735 546.217 13.2265L551.188 19.3832L557.874 15.4653C558.559 15.0921 559.331 15.7451 559.245 16.4914L557.874 24.6071L564.816 27.872C565.502 28.2451 565.502 29.2713 564.816 29.6444Z" fill="black"/>
</svg>
