<svg width="55" height="62" viewBox="0 0 55 62" fill="none" xmlns="http://www.w3.org/2000/svg">
<path d="M4.43604 61.096C6.886 61.096 8.8721 59.1586 8.8721 56.7687C8.8721 54.3788 6.886 52.4414 4.43604 52.4414C1.98607 52.4414 0 54.3788 0 56.7687C0 59.1586 1.98607 61.096 4.43604 61.096Z" fill="black"/>
<path d="M47.3955 14.5598C47.629 13.9525 47.7847 13.3452 47.8625 12.7378C48.6407 6.74042 43.5042 1.65402 37.2782 2.33726C35.6438 2.56501 34.0873 3.17234 32.7643 4.15926C31.2856 1.95768 28.7952 0.363435 25.9935 0.0597692C20.4679 -0.547563 15.7983 3.55193 15.5648 8.79016C15.1757 8.71425 14.7866 8.71425 14.3975 8.71425C9.02749 8.71425 4.74708 13.0415 4.98055 18.3556C5.1362 20.9368 6.3814 23.2902 8.24921 24.8845C6.45923 26.6305 5.36967 29.1358 5.52532 31.8688C5.75879 36.5756 9.72791 40.4473 14.5531 40.6751C15.4092 40.751 16.2653 40.5992 17.1214 40.4473C17.6661 44.6987 21.4018 48.1149 25.8378 48.2667C29.5734 48.4186 32.9199 46.3688 34.4765 43.4081C35.9551 44.3191 37.6673 44.8505 39.5351 44.8505C44.9051 44.8505 49.2633 40.4473 48.952 35.0573C48.8742 33.9185 48.5629 32.8557 48.0959 31.7929C51.5203 30.5023 54.0107 27.3897 54.1663 23.6698C54.5555 19.3426 51.5203 15.6226 47.3955 14.5598ZM43.0373 24.1253L36.9669 27.3138L38.7569 33.7667C38.9125 34.4499 38.2899 34.9813 37.5895 34.7536L31.2856 32.0965L27.2387 37.4866C26.8496 38.018 25.9156 37.8662 25.76 37.2588L23.97 30.8059L17.1214 31.1096C16.4209 31.1096 15.954 30.3504 16.4209 29.819L20.4678 24.429L15.954 19.4185C15.487 18.8871 15.8761 18.1279 16.5766 18.052L23.4252 17.7483L24.6704 11.1436C24.8261 10.4603 25.6822 10.2326 26.1491 10.764L30.663 15.7745L36.7334 12.586C37.356 12.2823 38.0564 12.8137 37.9786 13.4211L36.7334 20.0258L43.0373 22.6829C43.6599 22.9865 43.6599 23.8216 43.0373 24.1253Z" fill="black"/>
</svg>
