<svg width="316" height="140" viewBox="0 0 316 140" fill="none" xmlns="http://www.w3.org/2000/svg">
<path d="M78.408 30.888C78.096 31.872 77.376 33.432 75.024 33.432C71.832 33.432 70.848 30.48 70.848 27.696C70.848 24.672 71.976 22.008 74.928 22.008C77.184 22.008 78.072 23.28 78.432 24.576H82.008C81.6 21.792 79.464 19.224 75.048 19.224C69.72 19.224 67.152 23.28 67.152 27.816C67.152 32.52 69.624 36.24 74.88 36.24C79.032 36.24 81.36 33.984 82.008 30.888H78.408ZM91.3739 19.224C86.2379 19.224 83.2379 22.92 83.2379 27.72C83.2379 32.472 85.9499 36.24 91.1579 36.24C96.5339 36.24 99.2939 32.28 99.2939 27.672C99.2939 22.608 96.2219 19.224 91.3739 19.224ZM91.2299 22.128C94.3019 22.128 95.5979 24.576 95.5979 27.72C95.5979 30.672 94.4699 33.336 91.2779 33.336C88.3499 33.336 86.9339 30.888 86.9339 27.648C86.9339 24.432 88.2299 22.128 91.2299 22.128ZM104.67 36V30.96C104.67 28.008 104.622 24.6 104.502 23.16H104.55C105.39 25.08 109.614 32.76 111.39 36H115.59V19.464H112.35V24.36C112.35 27.072 112.35 29.952 112.542 31.68H112.494C111.726 29.88 107.91 23.16 105.846 19.464H101.406V36H104.67ZM122.069 36H125.645V22.392H130.661V19.464H117.029V22.392H122.069V36ZM139.206 32.184L140.574 36H144.342L138.462 19.464H133.974L128.358 36H131.886L133.158 32.184H139.206ZM133.926 29.256C134.862 26.256 135.678 23.664 136.086 22.032H136.11C136.518 23.52 137.262 25.752 138.438 29.256H133.926ZM155.674 30.888C155.362 31.872 154.642 33.432 152.29 33.432C149.098 33.432 148.114 30.48 148.114 27.696C148.114 24.672 149.242 22.008 152.194 22.008C154.45 22.008 155.338 23.28 155.698 24.576H159.274C158.866 21.792 156.73 19.224 152.314 19.224C146.986 19.224 144.418 23.28 144.418 27.816C144.418 32.52 146.89 36.24 152.146 36.24C156.298 36.24 158.626 33.984 159.274 30.888H155.674ZM164.632 36H168.208V22.392H173.224V19.464H159.592V22.392H164.632V36ZM181.21 19.224C176.074 19.224 173.074 22.92 173.074 27.72C173.074 32.472 175.786 36.24 180.994 36.24C186.37 36.24 189.13 32.28 189.13 27.672C189.13 22.608 186.058 19.224 181.21 19.224ZM181.066 22.128C184.138 22.128 185.434 24.576 185.434 27.72C185.434 30.672 184.306 33.336 181.114 33.336C178.186 33.336 176.77 30.888 176.77 27.648C176.77 24.432 178.066 22.128 181.066 22.128Z" fill="black"/>
<line y1="27.5" x2="48" y2="27.5" stroke="black" stroke-width="5"/>
<path d="M15.84 126H26.568V85.176H41.616V76.392H0.72V85.176H15.84V126ZM70.8493 100.728C70.8493 91.8 65.3773 87.912 55.4413 87.84C44.0653 87.84 39.9613 93.168 39.4573 99.792H49.2493C49.6813 97.056 50.6893 95.256 55.0093 95.256C59.8333 95.256 60.7693 97.848 60.7693 100.512V102.744H55.4413C44.4973 102.744 37.7293 106.704 37.7293 115.2C37.7293 120.96 41.4733 126.864 50.4733 126.864C57.0973 126.864 59.6173 124.416 60.9853 122.328C60.9853 123.264 61.2013 125.28 61.4893 126H71.3533C71.1373 125.136 70.8493 119.952 70.8493 116.352V100.728ZM60.7693 110.016C60.7693 114.912 59.9773 119.52 53.4253 119.52C49.6813 119.52 48.0253 117.216 48.0253 114.552C48.0253 110.952 50.3293 109.008 56.5933 109.008H60.7693V110.016ZM89.476 126V73.44H79.108V126H89.476ZM108.093 73.44H97.7252V126H108.093V114.048L112.845 109.44L122.277 126H133.941L119.757 102.816L132.717 88.704H120.909C115.725 94.968 110.829 100.728 108.093 104.472V73.44ZM168.699 126L169.995 117.432H147.531C148.323 115.272 150.699 112.536 156.531 108.432C165.243 102.312 168.267 99 168.267 92.088C168.267 85.032 164.091 77.76 151.923 77.76C140.979 77.76 135.651 84.6 135.003 92.736H144.939C145.587 88.632 147.243 85.752 151.923 85.752C155.883 85.752 157.899 88.056 157.899 92.16C157.899 96.336 155.883 97.992 149.187 102.888C138.891 110.376 135.219 117.072 135.219 125.352V126H168.699ZM176.319 76.392V105.624C176.319 122.184 185.967 126.72 197.199 126.72C208.143 126.72 218.079 122.4 218.079 105.408V76.392H207.279V105.912C207.279 114.984 203.463 118.296 197.343 118.296C191.943 118.296 187.047 115.488 187.047 105.912V76.392H176.319ZM222.776 114.768C223.64 121.392 228.248 126.864 239.624 126.864C250.928 126.864 255.68 121.248 255.68 115.056C255.68 109.584 253.88 105.336 241.424 102.456C235.376 101.016 234.224 100.152 234.224 98.28C234.224 96.624 235.376 95.112 238.76 95.112C243.584 95.112 244.52 97.704 244.88 99.072H254.672C254.384 94.032 250.496 87.84 239.191 87.84C227.96 87.84 224.144 93.672 224.144 99.144C224.144 104.4 226.088 108.144 238.256 111.168C243.584 112.464 245.168 113.4 245.168 115.776C245.168 118.08 243.8 119.448 239.984 119.448C236.168 119.448 233.72 117.792 232.928 114.768H222.776Z" fill="black"/>
<path d="M280.144 99.793C281.88 99.793 283.288 98.309 283.288 96.4785C283.288 94.648 281.88 93.1641 280.144 93.1641C278.408 93.1641 277 94.648 277 96.4785C277 98.309 278.408 99.793 280.144 99.793Z" fill="black"/>
<path d="M310.592 64.1505C310.757 63.6854 310.868 63.2203 310.923 62.7551C311.474 58.1621 307.834 54.2667 303.421 54.79C302.263 54.9644 301.16 55.4295 300.222 56.1853C299.174 54.4993 297.409 53.2783 295.423 53.0458C291.507 52.5807 288.197 55.7202 288.032 59.7319C287.756 59.6737 287.48 59.6737 287.204 59.6737C283.398 59.6737 280.365 62.9877 280.53 67.0575C280.64 69.0343 281.523 70.8366 282.847 72.0575C281.578 73.3948 280.806 75.3134 280.916 77.4064C281.082 81.0111 283.895 83.9762 287.315 84.1506C287.921 84.2088 288.528 84.0925 289.135 83.9762C289.521 87.2321 292.169 89.8484 295.313 89.9646C297.96 90.0809 300.332 88.5111 301.435 86.2437C302.483 86.9414 303.697 87.3483 305.021 87.3483C308.827 87.3483 311.916 83.9762 311.695 79.8483C311.64 78.9762 311.419 78.1622 311.088 77.3483C313.515 76.3599 315.28 73.9762 315.391 71.1273C315.667 67.8133 313.515 64.9645 310.592 64.1505ZM307.503 71.4761L303.201 73.918L304.469 78.8599C304.58 79.3832 304.138 79.7902 303.642 79.6157L299.174 77.5808L296.306 81.7088C296.03 82.1158 295.368 81.9995 295.258 81.5344L293.989 76.5925L289.135 76.825C288.639 76.825 288.308 76.2436 288.639 75.8366L291.507 71.7087L288.308 67.8715C287.977 67.4645 288.252 66.8831 288.749 66.8249L293.603 66.5924L294.485 61.5342C294.596 61.0109 295.202 60.8365 295.533 61.2435L298.733 65.0807L303.035 62.6389C303.476 62.4063 303.973 62.8133 303.918 63.2784L303.035 68.3366L307.503 70.3715C307.944 70.604 307.944 71.2436 307.503 71.4761Z" fill="black"/>
</svg>
