<svg width="129" height="47" viewBox="0 0 129 47" fill="none" xmlns="http://www.w3.org/2000/svg">
<path d="M8.3632 19.8477C8.30745 20.3773 8.14018 20.8512 7.91717 21.2694C7.66627 21.6876 7.3875 22.0778 6.99722 22.3845C6.63481 22.6911 6.21666 22.942 5.74274 23.1093C5.26883 23.2766 4.76704 23.3602 4.20949 23.3602C3.59619 23.3602 3.03865 23.2487 2.53686 23.0535C2.03507 22.8584 1.58903 22.5517 1.22663 22.1336C0.864226 21.7154 0.585454 21.2136 0.362436 20.6003C0.167295 19.987 0.0557861 19.2901 0.0557861 18.4817C0.0557861 17.6732 0.167295 16.9763 0.362436 16.3909C0.557576 15.8055 0.836349 15.3315 1.22663 14.9413C1.58903 14.5789 2.03507 14.3001 2.56474 14.1049C3.0944 13.9098 3.65195 13.8262 4.29313 13.8262C4.87855 13.8262 5.40822 13.9098 5.91001 14.0771C6.38392 14.2443 6.82995 14.4673 7.19236 14.774C7.55476 15.0806 7.83354 15.4431 8.05655 15.8891C8.25169 16.3072 8.39108 16.809 8.41896 17.3108H6.02151C5.96576 16.8369 5.77062 16.4745 5.46397 16.2236C5.15732 15.9727 4.76704 15.8333 4.321 15.8333C4.07011 15.8333 3.81921 15.8891 3.59619 15.9727C3.37318 16.0564 3.17804 16.1957 3.01077 16.4188C2.78776 16.586 2.67625 16.8648 2.56474 17.1993C2.45323 17.5338 2.42535 17.952 2.42535 18.4538C2.42535 19.4574 2.59261 20.1822 2.95502 20.6561C3.31742 21.13 3.7077 21.3809 4.18162 21.3809C4.65553 21.3809 5.04581 21.2415 5.38034 20.9906C5.71487 20.7397 5.91001 20.3494 5.93788 19.8755H8.3632V19.8477Z" fill="white"/>
<path d="M14.0223 23.3602C13.2975 23.3602 12.6285 23.2487 12.043 22.9978C11.4576 22.7748 10.9837 22.4402 10.5934 22.0221C10.2031 21.6039 9.89649 21.1021 9.67347 20.5167C9.47833 19.9313 9.36682 19.2901 9.36682 18.5932C9.36682 17.8684 9.47833 17.2272 9.70135 16.6418C9.92437 16.0564 10.231 15.5546 10.6213 15.1364C11.0395 14.7182 11.5134 14.4116 12.0709 14.1607C12.6285 13.9377 13.2975 13.8262 14.0223 13.8262C14.7471 13.8262 15.3604 13.9377 15.9458 14.1607C16.5034 14.3837 16.9773 14.7182 17.3955 15.1085C17.7857 15.5267 18.0924 16.0285 18.3154 16.6139C18.5384 17.1993 18.6499 17.8684 18.6499 18.5932C18.6499 19.318 18.5384 19.9592 18.3154 20.5446C18.0924 21.13 17.7857 21.6318 17.3955 22.05C17.0052 22.4681 16.5034 22.8026 15.9458 23.0257C15.3604 23.2487 14.7193 23.3602 14.0223 23.3602ZM14.0223 21.353C15.4719 21.353 16.2246 20.4331 16.2246 18.5932C16.2246 16.7533 15.4998 15.8612 14.0223 15.8612C12.5727 15.8612 11.82 16.7812 11.82 18.5932C11.8479 20.4331 12.5727 21.353 14.0223 21.353Z" fill="white"/>
<path d="M26.3161 21.9105C26.1489 22.3286 25.8422 22.6353 25.3962 22.8583C24.9501 23.0813 24.4205 23.1928 23.835 23.1928C23.0824 23.1928 22.4691 23.0534 21.9394 22.8026C21.4376 22.5517 21.0194 22.1893 20.7128 21.7711C20.4061 21.3529 20.1831 20.8511 20.0437 20.2936C19.9044 19.7361 19.8207 19.1506 19.8207 18.5652C19.8207 17.8683 19.9322 17.2271 20.1274 16.6417C20.3225 16.0563 20.6292 15.5545 20.9637 15.1642C21.3261 14.746 21.7443 14.4394 22.2182 14.2164C22.6921 13.9933 23.2217 13.8818 23.7514 13.8818C24.8665 13.8818 25.7307 14.3279 26.2882 15.2478V14.1327H28.6857V23.2765C28.6857 23.9734 28.5742 24.5588 28.3233 25.0885C28.1003 25.6182 27.7657 26.0363 27.3755 26.3987C26.9573 26.7611 26.4834 27.012 25.9537 27.2072C25.3962 27.4023 24.8108 27.4859 24.1975 27.4859C23.5842 27.4859 22.9987 27.4023 22.4412 27.2072C21.9115 27.0399 21.4376 26.789 21.0473 26.4545C20.657 26.1199 20.3504 25.7297 20.1274 25.2557C19.9044 24.7818 19.7928 24.2522 19.7928 23.6667H22.023C22.023 24.2243 22.1903 24.6424 22.5527 24.9491C22.9151 25.2557 23.389 25.3951 24.0023 25.3951C24.6435 25.3951 25.1732 25.2279 25.6192 24.8655C26.0652 24.5031 26.2882 24.0291 26.2882 23.4437V21.9105H26.3161ZM24.3368 21.3251C24.9223 21.3251 25.424 21.102 25.7865 20.656C26.1767 20.21 26.3719 19.5967 26.3719 18.8161C26.3719 16.8926 25.7028 15.9169 24.3368 15.9169C22.9709 15.9169 22.3018 16.8368 22.3018 18.6767C22.3018 19.4852 22.4969 20.1263 22.8872 20.6003C23.2775 21.102 23.7514 21.3251 24.3368 21.3251Z" fill="white"/>
<path d="M36.0453 23.1372V17.6454C36.0453 16.9484 35.9338 16.4745 35.6829 16.2236C35.4599 15.9727 35.0418 15.8612 34.4842 15.8612C33.2576 15.8612 32.6164 16.5581 32.6164 17.952V23.1372H30.219V14.0771H32.5049V15.3873C32.7837 14.8855 33.174 14.4952 33.62 14.2165C34.0939 13.9656 34.6794 13.8262 35.432 13.8262C35.8502 13.8262 36.2684 13.8819 36.6308 14.0213C36.9932 14.1607 37.3277 14.3558 37.5786 14.6067C37.8295 14.8576 38.0525 15.1922 38.1919 15.5546C38.3313 15.917 38.4149 16.363 38.4149 16.8648V23.1372H36.0453Z" fill="white"/>
<path d="M40.0875 12.9899V10.7598H42.4849V12.9899H40.0875ZM40.0875 23.1373V14.0772H42.4849V23.1373H40.0875Z" fill="white"/>
<path d="M49.2033 17.1715H51.4335V19.7362C51.4335 20.2101 51.3499 20.6841 51.2105 21.1022C51.0711 21.5483 50.8481 21.9107 50.5414 22.2731C50.2348 22.6076 49.8724 22.8864 49.3985 23.0815C48.9524 23.2766 48.3949 23.3882 47.7537 23.3882C47.0847 23.3882 46.5271 23.2766 46.0532 23.0815C45.5793 22.8864 45.2169 22.6355 44.9102 22.3009C44.6036 21.9664 44.3806 21.5761 44.2691 21.1301C44.1297 20.6841 44.0739 20.2101 44.0739 19.7362V10.7598H46.4156V14.0772H51.4056V15.7777H46.4156V19.4853C46.4156 20.0708 46.5271 20.5168 46.7501 20.8234C46.9731 21.1301 47.3077 21.2974 47.8095 21.2974C48.2834 21.2974 48.6458 21.158 48.8688 20.8513C49.0918 20.5447 49.2033 20.0986 49.2033 19.5411V17.1715Z" fill="white"/>
<path d="M52.9668 12.9899V10.7598H55.3642V12.9899H52.9668ZM52.9668 23.1373V14.0772H55.3642V23.1373H52.9668Z" fill="white"/>
<path d="M59.7688 23.1372L56.535 14.0771H59.2113L61.1069 20.0429L63.0304 14.0771H65.5394L62.2777 23.1372H59.7688Z" fill="white"/>
<path d="M68.2435 19.2344C68.2714 19.9313 68.4665 20.461 68.8289 20.8791C69.1913 21.2973 69.6652 21.4924 70.2507 21.4924C70.6409 21.4924 70.9755 21.4088 71.2821 21.2136C71.5888 21.0464 71.7839 20.7955 71.8675 20.461H74.3207C74.042 21.3809 73.5402 22.1057 72.8432 22.6075C72.1463 23.1093 71.31 23.3602 70.3343 23.3602C67.3235 23.3602 65.8182 21.7154 65.8182 18.4259C65.8182 17.729 65.9297 17.0878 66.1248 16.5303C66.32 15.9727 66.5987 15.4709 66.989 15.0806C67.3514 14.6625 67.8253 14.3558 68.355 14.1607C68.8847 13.9377 69.5258 13.8262 70.2228 13.8262C71.6166 13.8262 72.676 14.2722 73.4008 15.1643C74.1256 16.0564 74.488 17.3945 74.488 19.2065H68.2435V19.2344ZM72.0348 17.729C72.0348 17.3945 71.9512 17.1157 71.8675 16.8648C71.756 16.6139 71.6166 16.4188 71.4494 16.2515C71.2821 16.0842 71.087 15.9727 70.864 15.8891C70.6409 15.8055 70.4179 15.7776 70.1949 15.7776C69.721 15.7776 69.3028 15.9448 68.9404 16.3072C68.578 16.6697 68.3829 17.1436 68.355 17.7569H72.0348V17.729Z" fill="white"/>
<path d="M5.8821 45.746C5.79847 45.523 5.77059 45.2442 5.74271 44.9376C5.46394 45.2442 5.07366 45.523 4.62762 45.6903C4.15371 45.8854 3.62404 45.969 3.01074 45.969C1.97928 45.969 1.19872 45.746 0.724808 45.2721C0.250895 44.8261 0 44.2128 0 43.488C0 42.8468 0.111509 42.3171 0.30665 41.9268C0.50179 41.5365 0.80844 41.2299 1.17084 41.0069C1.53325 40.7839 1.97928 40.6166 2.48107 40.533C2.98286 40.4215 3.54041 40.3378 4.15371 40.2542C4.76701 40.1706 5.15729 40.0591 5.38031 39.9197C5.57545 39.7803 5.68696 39.5573 5.68696 39.2227C5.68696 38.9161 5.54757 38.6931 5.2688 38.5258C4.99003 38.3585 4.62762 38.2749 4.15371 38.2749C3.59616 38.2749 3.20588 38.3864 2.95499 38.6373C2.70409 38.8882 2.56471 39.1949 2.50895 39.613H0.278772C0.278772 39.1391 0.362404 38.7209 0.50179 38.3307C0.641176 37.9404 0.864194 37.6059 1.17084 37.3271C1.47749 37.0483 1.89565 36.8253 2.39744 36.6859C2.89923 36.5465 3.51253 36.4629 4.23734 36.4629C4.96215 36.4629 5.54757 36.5465 6.04936 36.7138C6.55115 36.881 6.94143 37.1041 7.24808 37.4107C7.55473 37.7174 7.77775 38.0798 7.88926 38.5258C8.02864 38.9718 8.0844 39.4736 8.0844 40.0312V45.746H5.8821ZM5.71483 41.3135C5.60332 41.425 5.40818 41.5365 5.18517 41.6202C4.96215 41.7038 4.62762 41.7874 4.18159 41.8711C3.48465 42.0105 3.01074 42.1777 2.75985 42.3729C2.50895 42.568 2.36957 42.8747 2.36957 43.2649C2.36957 43.934 2.75985 44.2685 3.54041 44.2685C3.84706 44.2685 4.12583 44.2128 4.4046 44.1013C4.6555 43.9897 4.90639 43.8504 5.07366 43.6831C5.2688 43.5158 5.40818 43.2928 5.51969 43.0698C5.6312 42.8189 5.68696 42.568 5.68696 42.3171L5.71483 41.3135Z" fill="white"/>
<path d="M17.8135 42.4844C17.7578 43.014 17.5905 43.488 17.3675 43.9061C17.1166 44.3243 16.8378 44.7146 16.4475 45.0212C16.0851 45.3279 15.667 45.5787 15.1931 45.746C14.7191 45.9133 14.2174 45.9969 13.6598 45.9969C13.0465 45.9969 12.489 45.8854 11.9872 45.6903C11.4854 45.4951 11.0394 45.1885 10.6769 44.7703C10.3145 44.3521 10.0358 43.8504 9.81275 43.2371C9.61761 42.6238 9.5061 41.9268 9.5061 41.1184C9.5061 40.3099 9.61761 39.613 9.81275 39.0276C10.0079 38.4422 10.2867 37.9683 10.6769 37.578C11.0394 37.2156 11.4854 36.9368 12.0151 36.7417C12.5447 36.5465 13.1023 36.4629 13.7434 36.4629C14.3289 36.4629 14.8585 36.5465 15.3603 36.7138C15.8342 36.881 16.2803 37.1041 16.6427 37.4107C17.0051 37.7174 17.2839 38.0798 17.5069 38.5258C17.702 38.944 17.8414 39.4458 17.8693 39.9475H15.4718C15.4161 39.4736 15.2209 39.1112 14.9143 38.8603C14.6076 38.6094 14.2174 38.4701 13.7713 38.4701C13.5204 38.4701 13.2695 38.5258 13.0465 38.6094C12.8235 38.6931 12.6284 38.8325 12.4611 39.0555C12.2938 39.2506 12.1544 39.5294 12.0708 39.8639C11.9593 40.1984 11.9314 40.6166 11.9314 41.1184C11.9314 42.122 12.0987 42.8468 12.4611 43.3207C12.8235 43.7946 13.2138 44.0455 13.6877 44.0455C14.1616 44.0455 14.5519 43.9061 14.8864 43.6552C15.2209 43.4043 15.4161 43.014 15.444 42.5401H17.8135V42.4844Z" fill="white"/>
<path d="M24.8107 45.7461V40.1428C24.8107 39.4458 24.6992 38.9998 24.4483 38.7489C24.1974 38.498 23.8072 38.3586 23.2496 38.3586C22.943 38.3586 22.6921 38.4144 22.469 38.5259C22.246 38.6374 22.0509 38.8047 21.8836 38.9998C21.7164 39.1949 21.6049 39.4458 21.5212 39.6967C21.4376 39.9476 21.4097 40.2543 21.4097 40.5609V45.7461H19.0123V33.3965H21.4097V37.8847C21.4933 37.6896 21.6327 37.4944 21.8 37.3272C21.9673 37.1599 22.1903 36.9926 22.4133 36.8811C22.6363 36.7696 22.9151 36.6581 23.1939 36.5745C23.4726 36.4909 23.7793 36.463 24.0859 36.463C25.0059 36.463 25.7864 36.7139 26.344 37.2157C26.9294 37.7175 27.2082 38.4423 27.2082 39.3343V45.7461H24.8107Z" fill="white"/>
<path d="M28.853 35.6267V33.3965H31.2504V35.6267H28.853ZM28.853 45.7461V36.686H31.2504V45.7461H28.853Z" fill="white"/>
<path d="M35.0138 41.8428C35.0417 42.5397 35.2368 43.0694 35.5992 43.4875C35.9616 43.9057 36.4356 44.1008 37.021 44.1008C37.4113 44.1008 37.7458 44.0172 38.0524 43.822C38.3591 43.6548 38.5542 43.4039 38.6379 43.0694H41.0911C40.8123 43.9893 40.3105 44.7141 39.6136 45.2159C38.9166 45.7177 38.0803 45.9686 37.1046 45.9686C34.0939 45.9686 32.5885 44.3238 32.5885 41.0343C32.5885 40.3374 32.7 39.6962 32.8952 39.1387C33.0903 38.5811 33.3691 38.0793 33.7593 37.689C34.1217 37.2709 34.5957 36.9642 35.1253 36.7691C35.655 36.5461 36.2962 36.4346 36.9931 36.4346C38.387 36.4346 39.4463 36.8806 40.1711 37.7727C40.8959 38.6648 41.2583 40.0029 41.2583 41.8149H35.0138V41.8428ZM38.8051 40.3374C38.8051 40.0029 38.7215 39.7241 38.6379 39.4732C38.5264 39.2223 38.387 39.0272 38.2197 38.8599C38.0524 38.6926 37.8573 38.5811 37.6343 38.4975C37.4113 38.4139 37.1882 38.386 36.9652 38.386C36.4913 38.386 36.0732 38.5532 35.7108 38.9156C35.3483 39.2781 35.1532 39.752 35.1253 40.3653H38.8051V40.3374Z" fill="white"/>
<path d="M44.7987 45.7456L41.5649 36.6855H44.2412L46.1368 42.6513L48.0603 36.6855H50.5693L47.3077 45.7456H44.7987Z" fill="white"/>
<path d="M53.2734 41.8428C53.3013 42.5397 53.4964 43.0694 53.8588 43.4875C54.2212 43.9057 54.6951 44.1008 55.2806 44.1008C55.6708 44.1008 56.0054 44.0172 56.312 43.822C56.6187 43.6548 56.8138 43.4039 56.8974 43.0694H59.3506C59.0719 43.9893 58.5701 44.7141 57.8731 45.2159C57.1762 45.7177 56.3399 45.9686 55.3642 45.9686C52.3535 45.9686 50.8481 44.3238 50.8481 41.0343C50.8481 40.3374 50.9596 39.6962 51.1547 39.1387C51.3499 38.5811 51.6286 38.0793 52.0189 37.689C52.3813 37.2709 52.8552 36.9642 53.3849 36.7691C53.9146 36.5461 54.5558 36.4346 55.2527 36.4346C56.6465 36.4346 57.7059 36.8806 58.4307 37.7727C59.1555 38.6648 59.5179 40.0029 59.5179 41.8149H53.2734V41.8428ZM57.0368 40.3374C57.0368 40.0029 56.9532 39.7241 56.8696 39.4732C56.7581 39.2223 56.6187 39.0272 56.4514 38.8599C56.2841 38.6926 56.089 38.5811 55.866 38.4975C55.643 38.4139 55.42 38.386 55.1969 38.386C54.723 38.386 54.3049 38.5532 53.9425 38.9156C53.5801 39.2781 53.3849 39.752 53.357 40.3653H57.0368V40.3374Z" fill="white"/>
<path d="M71.4493 45.746V40.2821C71.4493 39.7245 71.31 39.2785 71.0591 38.944C70.8082 38.6094 70.4458 38.4422 70.0276 38.4422C69.5816 38.4422 69.2192 38.6373 68.9404 38.9997C68.6616 39.3621 68.4944 39.836 68.4944 40.3657V45.7739H66.0969V40.3378C66.0969 39.9754 66.069 39.6688 66.0133 39.4458C65.9575 39.2227 65.8739 39.0276 65.7624 38.8882C65.6509 38.7488 65.4836 38.6652 65.3163 38.6094C65.1212 38.5537 64.8982 38.5258 64.6473 38.5258C63.6716 38.5258 63.1977 39.1112 63.1977 40.2821V45.7739H60.8002V36.7138H63.0304V38.024C63.3371 37.4107 63.6995 37.0204 64.1455 36.7974C64.5637 36.5744 65.0933 36.4629 65.6787 36.4629C65.9854 36.4629 66.2642 36.4908 66.4872 36.5465C66.7381 36.6023 66.9332 36.6859 67.1284 36.7974C67.3235 36.9089 67.4908 37.0762 67.658 37.2435C67.8253 37.4386 67.9926 37.6616 68.1598 37.9125C68.4107 37.4107 68.7174 37.0483 69.1355 36.8253C69.5537 36.6023 70.0276 36.4908 70.613 36.4908C71.0591 36.4908 71.4772 36.5744 71.8675 36.7138C72.2578 36.881 72.5644 37.0762 72.8432 37.355C73.122 37.6337 73.3171 37.9404 73.4844 38.3307C73.6238 38.6931 73.7074 39.0833 73.7074 39.5015V45.7739H71.4493V45.746Z" fill="white"/>
<path d="M77.4151 41.8428C77.4429 42.5397 77.6381 43.0694 78.0005 43.4875C78.3629 43.9057 78.8368 44.1008 79.4222 44.1008C79.8125 44.1008 80.147 44.0172 80.4537 43.822C80.7603 43.6548 80.9555 43.4039 81.0391 43.0694H83.4923C83.2135 43.9893 82.7117 44.7141 82.0148 45.2159C81.3179 45.7177 80.4816 45.9686 79.5059 45.9686C76.4951 45.9686 74.9897 44.3238 74.9897 41.0343C74.9897 40.3374 75.1013 39.6962 75.2964 39.1387C75.4915 38.5811 75.7703 38.0793 76.1606 37.689C76.523 37.2709 76.9969 36.9642 77.5266 36.7691C78.0562 36.5461 78.6974 36.4346 79.3943 36.4346C80.7882 36.4346 81.8475 36.8806 82.5723 37.7727C83.2972 38.6648 83.6596 40.0029 83.6596 41.8149H77.4151V41.8428ZM81.1785 40.3374C81.1785 40.0029 81.0949 39.7241 81.0112 39.4732C80.8997 39.2223 80.7603 39.0272 80.5931 38.8599C80.4258 38.6926 80.2307 38.5811 80.0076 38.4975C79.7846 38.4139 79.5616 38.386 79.3386 38.386C78.8647 38.386 78.4465 38.5532 78.0841 38.9156C77.7217 39.2781 77.5266 39.752 77.4987 40.3653H81.1785V40.3374Z" fill="white"/>
<path d="M90.7961 45.746V40.2821C90.7961 39.5851 90.6846 39.1112 90.4337 38.8603C90.2107 38.6094 89.7926 38.4979 89.235 38.4979C88.0084 38.4979 87.3672 39.1949 87.3672 40.5887V45.7739H84.9977V36.7138H87.2836V38.024C87.5624 37.5222 87.9527 37.1319 88.3987 36.8532C88.8726 36.6023 89.458 36.4629 90.2107 36.4629C90.6289 36.4629 91.047 36.5186 91.4094 36.658C91.7718 36.7974 92.1064 36.9926 92.3573 37.2435C92.6082 37.4943 92.8312 37.8289 92.9706 38.1913C93.11 38.5537 93.1936 38.9997 93.1936 39.5015V45.7739H90.7961V45.746Z" fill="white"/>
<path d="M99.8841 39.8077H102.114V42.3724C102.114 42.8463 102.031 43.3202 101.891 43.7384C101.752 44.1844 101.529 44.5468 101.222 44.9093C100.916 45.2438 100.553 45.5225 100.079 45.7177C99.6332 45.9128 99.0757 46.0243 98.4345 46.0243C97.7654 46.0243 97.2079 45.9128 96.734 45.7177C96.2601 45.5225 95.8977 45.2717 95.591 44.9371C95.2844 44.6026 95.0614 44.2123 94.9498 43.7663C94.8105 43.3202 94.7547 42.8463 94.7547 42.3724V33.4238H97.0964V36.7412H102.086V38.4417H97.0964V42.1494C97.0964 42.7348 97.2079 43.1809 97.4309 43.4875C97.6539 43.7942 97.9885 43.9614 98.4902 43.9614C98.9642 43.9614 99.3266 43.822 99.5496 43.5154C99.7726 43.2087 99.8841 42.7627 99.8841 42.2052V39.8077Z" fill="white"/>
<path d="M111.174 23.137C112.052 23.137 112.763 22.4256 112.763 21.548C112.763 20.6704 112.052 19.959 111.174 19.959C110.297 19.959 109.585 20.6704 109.585 21.548C109.585 22.4256 110.297 23.137 111.174 23.137Z" fill="white"/>
<path d="M126.563 6.04865C126.646 5.82563 126.702 5.60261 126.73 5.37959C127.009 3.17729 125.169 1.30952 122.939 1.56041C122.353 1.64404 121.796 1.86706 121.322 2.22947C120.792 1.42103 119.9 0.835605 118.896 0.724096C116.917 0.501078 115.244 2.00645 115.161 3.92998C115.021 3.9021 114.882 3.9021 114.743 3.9021C112.819 3.9021 111.286 5.4911 111.37 7.44251C111.425 8.39034 111.871 9.25453 112.54 9.83995C111.899 10.4811 111.509 11.4011 111.565 12.4047C111.648 14.133 113.07 15.5548 114.798 15.6384C115.105 15.6663 115.412 15.6105 115.718 15.5548C115.914 17.1159 117.252 18.3704 118.841 18.4261C120.179 18.4819 121.377 17.7292 121.935 16.642C122.465 16.9765 123.078 17.1717 123.747 17.1717C125.671 17.1717 127.232 15.5548 127.12 13.5755C127.092 13.1573 126.981 12.7671 126.814 12.3768C128.04 11.9029 128.932 10.7599 128.988 9.39392C129.127 7.80491 128.04 6.43893 126.563 6.04865ZM125.002 9.56118L122.827 10.732L123.468 13.1016C123.524 13.3525 123.301 13.5476 123.05 13.464L120.792 12.4883L119.342 14.4676C119.203 14.6627 118.869 14.607 118.813 14.3839L118.172 12.0144L115.718 12.1259C115.467 12.1259 115.3 11.8471 115.467 11.652L116.917 9.67269L115.3 7.83279C115.133 7.63765 115.272 7.35888 115.523 7.331L117.976 7.21949L118.422 4.79417C118.478 4.54328 118.785 4.45965 118.952 4.65479L120.569 6.49468L122.743 5.32384C122.966 5.21233 123.217 5.40747 123.189 5.63049L122.743 8.05581L125.002 9.03151C125.225 9.14302 125.225 9.44967 125.002 9.56118Z" fill="white"/>
</svg>
